HIERARCHY
ROOT newVegas:Hips
{
	OFFSET 0.000000 96.479958 0.000000
	CHANNELS 6 Xposition Yposition Zposition Xrotation Yrotation Zrotation
	JOINT newVegas:Pelvis
	{
		OFFSET 0.000000 0.000000 0.000000
		CHANNELS 3 Xrotation Yrotation Zrotation
		JOINT newVegas:LeftUpLeg
		{
			OFFSET 18.735201 -5.666702 -4.541200
			CHANNELS 3 Xrotation Yrotation Zrotation
			JOINT newVegas:LeftLeg
			{
				OFFSET -0.021200 -31.938179 0.493100
				CHANNELS 3 Xrotation Yrotation Zrotation
				JOINT newVegas:LeftFoot
				{
					OFFSET 0.021200 -31.938179 -4.336299
					CHANNELS 3 Xrotation Yrotation Zrotation
					JOINT newVegas:LeftToeBase
					{
						OFFSET 0.943001 -26.722000 15.023500
						CHANNELS 3 Xrotation Yrotation Zrotation
						End Site
						{
							OFFSET 0.000000 30.670183 0.000000
						}
					}
				}
				JOINT newVegas:Left_PantLeg
				{
					OFFSET 0.663870 -9.044666 -1.108900
					CHANNELS 3 Xrotation Yrotation Zrotation
					End Site
					{
						OFFSET 1.415995 20.635357 0.000000
					}
				}
			}
		}
		JOINT newVegas:RightUpLeg
		{
			OFFSET -18.735201 -5.666702 -4.541200
			CHANNELS 3 Xrotation Yrotation Zrotation
			JOINT newVegas:RightLeg
			{
				OFFSET 0.018946 -31.938133 0.493100
				CHANNELS 3 Xrotation Yrotation Zrotation
				JOINT newVegas:RightFoot
				{
					OFFSET -0.018946 -31.938126 -4.336299
					CHANNELS 3 Xrotation Yrotation Zrotation
					JOINT newVegas:RightToeBase
					{
						OFFSET -0.943001 -26.722004 15.023500
						CHANNELS 3 Xrotation Yrotation Zrotation
						End Site
						{
							OFFSET 0.000000 30.670187 0.000000
						}
					}
				}
				JOINT newVegas:Right_PantLeg
				{
					OFFSET -0.661674 -9.044716 -1.108900
					CHANNELS 3 Xrotation Yrotation Zrotation
					End Site
					{
						OFFSET -1.415958 20.635269 0.000000
					}
				}
			}
		}
	}
	JOINT newVegas:Spine
	{
		OFFSET 0.000000 10.199997 -0.299500
		CHANNELS 3 Xrotation Yrotation Zrotation
		JOINT newVegas:Spine1
		{
			OFFSET 0.000000 11.900002 -1.516600
			CHANNELS 3 Xrotation Yrotation Zrotation
			JOINT newVegas:Spine2
			{
				OFFSET 0.000000 13.600006 -2.842500
				CHANNELS 3 Xrotation Yrotation Zrotation
				JOINT newVegas:Neck
				{
					OFFSET 0.000000 9.624100 -2.890100
					CHANNELS 3 Xrotation Yrotation Zrotation
					JOINT newVegas:Head
					{
						OFFSET 0.000000 14.068802 -1.351900
						CHANNELS 3 Xrotation Yrotation Zrotation
						JOINT newVegas:Hair_Back
						{
							OFFSET 0.000000 3.231903 -17.524799
							CHANNELS 3 Xrotation Yrotation Zrotation
							End Site
							{
								OFFSET 0.000000 19.849884 0.000000
							}
						}
						JOINT newVegas:Hair_Front
						{
							OFFSET 0.000000 31.260406 4.573800
							CHANNELS 3 Xrotation Yrotation Zrotation
							JOINT newVegas:Hair_Front1
							{
								OFFSET 0.000000 2.284103 11.993300
								CHANNELS 3 Xrotation Yrotation Zrotation
								JOINT newVegas:Hair_Front2
								{
									OFFSET 0.000000 2.284103 11.993300
									CHANNELS 3 Xrotation Yrotation Zrotation
									End Site
									{
										OFFSET 0.000000 12.208862 0.000000
									}
								}
							}
						}
						JOINT newVegas:Jowel
						{
							OFFSET 0.000000 -7.458206 6.864100
							CHANNELS 3 Xrotation Yrotation Zrotation
							End Site
							{
								OFFSET 0.000000 19.849884 0.000000
							}
						}
					}
				}
				JOINT newVegas:LeftShoulder
				{
					OFFSET 15.263000 10.923401 -0.547700
					CHANNELS 3 Xrotation Yrotation Zrotation
					JOINT newVegas:LeftArm
					{
						OFFSET 25.438599 -2.830597 -13.032500
						CHANNELS 3 Xrotation Yrotation Zrotation
						JOINT newVegas:LeftForeArm
						{
							OFFSET 29.960503 0.000000 0.000000
							CHANNELS 3 Xrotation Yrotation Zrotation
							JOINT newVegas:LeftHand
							{
								OFFSET 27.849251 0.000000 0.000000
								CHANNELS 3 Xrotation Yrotation Zrotation
								JOINT newVegas:LeftHandThumb1
								{
									OFFSET 4.487587 -3.305161 6.305391
									CHANNELS 3 Xrotation Yrotation Zrotation
									JOINT newVegas:LeftHandThumb2
									{
										OFFSET 5.480453 -3.164139 3.164143
										CHANNELS 3 Xrotation Yrotation Zrotation
										JOINT newVegas:LeftHandThumb3
										{
											OFFSET 5.159721 -2.978973 2.978967
											CHANNELS 3 Xrotation Yrotation Zrotation
											End Site
											{
												OFFSET 2.494507 5.926697 1.738678
											}
										}
									}
								}
								JOINT newVegas:LeftHandIndex1
								{
									OFFSET 18.578728 -0.527832 5.208049
									CHANNELS 3 Xrotation Yrotation Zrotation
									JOINT newVegas:LeftHandIndex2
									{
										OFFSET 3.192009 0.000000 0.000000
										CHANNELS 3 Xrotation Yrotation Zrotation
										JOINT newVegas:LeftHandIndex3
										{
											OFFSET 3.835129 0.000000 0.000000
											CHANNELS 3 Xrotation Yrotation Zrotation
											End Site
											{
												OFFSET -0.034599 3.816971 0.371180
											}
										}
									}
								}
								JOINT newVegas:LeftHandMiddle1
								{
									OFFSET 18.476105 0.000000 0.000000
									CHANNELS 3 Xrotation Yrotation Zrotation
									JOINT newVegas:LeftHandMiddle2
									{
										OFFSET 3.324875 0.000000 0.000000
										CHANNELS 3 Xrotation Yrotation Zrotation
										JOINT newVegas:LeftHandMiddle3
										{
											OFFSET 4.596550 0.000000 0.000000
											CHANNELS 3 Xrotation Yrotation Zrotation
											End Site
											{
												OFFSET 0.057701 4.578827 0.399218
											}
										}
									}
								}
								JOINT newVegas:LeftHandRing1
								{
									OFFSET 17.732719 0.121887 -4.201567
									CHANNELS 3 Xrotation Yrotation Zrotation
									JOINT newVegas:LeftHandRing2
									{
										OFFSET 2.733170 0.000000 0.000000
										CHANNELS 3 Xrotation Yrotation Zrotation
										JOINT newVegas:LeftHandRing3
										{
											OFFSET 3.178268 0.000000 0.000000
											CHANNELS 3 Xrotation Yrotation Zrotation
											End Site
											{
												OFFSET 0.119102 3.170624 0.185394
											}
										}
									}
								}
								JOINT newVegas:LeftHandPinky1
								{
									OFFSET 15.989624 -0.606689 -7.535461
									CHANNELS 3 Xrotation Yrotation Zrotation
									JOINT newVegas:LeftHandPinky2
									{
										OFFSET 2.538986 0.000000 0.000000
										CHANNELS 3 Xrotation Yrotation Zrotation
										JOINT newVegas:LeftHandPinky3
										{
											OFFSET 2.593102 0.000000 0.000000
											CHANNELS 3 Xrotation Yrotation Zrotation
											End Site
											{
												OFFSET -0.150902 2.584198 0.152708
											}
										}
									}
								}
							}
							JOINT newVegas:Left_Sleeve
							{
								OFFSET 0.267448 -0.649796 0.577675
								CHANNELS 3 Xrotation Yrotation Zrotation
								End Site
								{
									OFFSET 0.000000 15.991241 0.000000
								}
							}
							JOINT newVegas:Left_CapeC
							{
								OFFSET 15.715958 -8.608795 -6.935905
								CHANNELS 3 Xrotation Yrotation Zrotation
								JOINT newVegas:Left_CapeC1
								{
									OFFSET 0.000000 -8.688499 0.000000
									CHANNELS 3 Xrotation Yrotation Zrotation
									End Site
									{
										OFFSET 0.000000 8.688499 0.000000
									}
								}
							}
						}
						JOINT newVegas:Left_CapeB
						{
							OFFSET 26.118385 -8.608795 -7.079235
							CHANNELS 3 Xrotation Yrotation Zrotation
							JOINT newVegas:Left_CapeB1
							{
								OFFSET 0.000000 -8.688499 0.000000
								CHANNELS 3 Xrotation Yrotation Zrotation
								End Site
								{
									OFFSET 0.000000 8.688499 0.000000
								}
							}
						}
						JOINT newVegas:Left_CapeA
						{
							OFFSET 5.115639 -8.608795 -10.395809
							CHANNELS 3 Xrotation Yrotation Zrotation
							JOINT newVegas:Left_CapeA1
							{
								OFFSET 0.000000 -8.688499 0.000000
								CHANNELS 3 Xrotation Yrotation Zrotation
								End Site
								{
									OFFSET 0.000000 8.688499 0.000000
								}
							}
						}
					}
				}
				JOINT newVegas:RightShoulder
				{
					OFFSET -15.263000 10.923401 -0.547700
					CHANNELS 3 Xrotation Yrotation Zrotation
					JOINT newVegas:RightArm
					{
						OFFSET -25.438599 -2.830597 -13.032500
						CHANNELS 3 Xrotation Yrotation Zrotation
						JOINT newVegas:RightForeArm
						{
							OFFSET -29.960503 0.000000 0.000000
							CHANNELS 3 Xrotation Yrotation Zrotation
							JOINT newVegas:RightHand
							{
								OFFSET -27.849251 0.000000 0.000000
								CHANNELS 3 Xrotation Yrotation Zrotation
								JOINT newVegas:RightHandThumb1
								{
									OFFSET -4.487587 -3.305161 6.305391
									CHANNELS 3 Xrotation Yrotation Zrotation
									JOINT newVegas:RightHandThumb2
									{
										OFFSET -5.480453 -3.164139 3.164143
										CHANNELS 3 Xrotation Yrotation Zrotation
										JOINT newVegas:RightHandThumb3
										{
											OFFSET -5.159721 -2.978973 2.978967
											CHANNELS 3 Xrotation Yrotation Zrotation
											End Site
											{
												OFFSET -2.494507 5.926697 1.738678
											}
										}
									}
								}
								JOINT newVegas:RightHandIndex1
								{
									OFFSET -18.578728 -0.527832 5.208049
									CHANNELS 3 Xrotation Yrotation Zrotation
									JOINT newVegas:RightHandIndex2
									{
										OFFSET -3.192009 0.000000 0.000000
										CHANNELS 3 Xrotation Yrotation Zrotation
										JOINT newVegas:RightHandIndex3
										{
											OFFSET -3.835129 0.000000 0.000000
											CHANNELS 3 Xrotation Yrotation Zrotation
											End Site
											{
												OFFSET 0.034599 3.816971 0.371180
											}
										}
									}
								}
								JOINT newVegas:RightHandMiddle1
								{
									OFFSET -18.476105 0.000000 0.000000
									CHANNELS 3 Xrotation Yrotation Zrotation
									JOINT newVegas:RightHandMiddle2
									{
										OFFSET -3.324875 0.000000 0.000000
										CHANNELS 3 Xrotation Yrotation Zrotation
										JOINT newVegas:RightHandMiddle3
										{
											OFFSET -4.596550 0.000000 0.000000
											CHANNELS 3 Xrotation Yrotation Zrotation
											End Site
											{
												OFFSET -0.057701 4.578827 0.399218
											}
										}
									}
								}
								JOINT newVegas:RightHandRing1
								{
									OFFSET -17.732719 0.121887 -4.201567
									CHANNELS 3 Xrotation Yrotation Zrotation
									JOINT newVegas:RightHandRing2
									{
										OFFSET -2.733170 0.000000 0.000000
										CHANNELS 3 Xrotation Yrotation Zrotation
										JOINT newVegas:RightHandRing3
										{
											OFFSET -3.178268 0.000000 0.000000
											CHANNELS 3 Xrotation Yrotation Zrotation
											End Site
											{
												OFFSET -0.119102 3.170624 0.185394
											}
										}
									}
								}
								JOINT newVegas:RightHandPinky1
								{
									OFFSET -15.989624 -0.606689 -7.535461
									CHANNELS 3 Xrotation Yrotation Zrotation
									JOINT newVegas:RightHandPinky2
									{
										OFFSET -2.538986 0.000000 0.000000
										CHANNELS 3 Xrotation Yrotation Zrotation
										JOINT newVegas:RightHandPinky3
										{
											OFFSET -2.593102 0.000000 0.000000
											CHANNELS 3 Xrotation Yrotation Zrotation
											End Site
											{
												OFFSET 0.150902 2.584198 0.152708
											}
										}
									}
								}
							}
							JOINT newVegas:Right_CapeC
							{
								OFFSET -15.715958 -8.608795 -6.935905
								CHANNELS 3 Xrotation Yrotation Zrotation
								JOINT newVegas:Right_CapeC1
								{
									OFFSET 0.000000 -8.688499 0.000000
									CHANNELS 3 Xrotation Yrotation Zrotation
									End Site
									{
										OFFSET 0.000000 8.688499 0.000000
									}
								}
							}
							JOINT newVegas:Right_Sleeve
							{
								OFFSET -0.267448 -0.649994 0.577675
								CHANNELS 3 Xrotation Yrotation Zrotation
								End Site
								{
									OFFSET 0.000000 15.991302 0.000000
								}
							}
						}
						JOINT newVegas:Right_CapeA
						{
							OFFSET -5.115540 -8.608795 -10.395824
							CHANNELS 3 Xrotation Yrotation Zrotation
							JOINT newVegas:Right_CapeA1
							{
								OFFSET 0.000000 -8.688499 0.000000
								CHANNELS 3 Xrotation Yrotation Zrotation
								End Site
								{
									OFFSET 0.000000 8.688499 0.000000
								}
							}
						}
						JOINT newVegas:Right_CapeB
						{
							OFFSET -26.118187 -8.608795 -7.079266
							CHANNELS 3 Xrotation Yrotation Zrotation
							JOINT newVegas:Right_CapeB1
							{
								OFFSET 0.000000 -8.688499 0.000000
								CHANNELS 3 Xrotation Yrotation Zrotation
								End Site
								{
									OFFSET 0.000000 8.688499 0.000000
								}
							}
						}
					}
				}
				JOINT newVegas:Left_Collar
				{
					OFFSET 18.625099 8.655502 8.828100
					CHANNELS 3 Xrotation Yrotation Zrotation
					JOINT newVegas:Left_Collar1
					{
						OFFSET 14.783401 10.540405 -1.259500
						CHANNELS 3 Xrotation Yrotation Zrotation
						End Site
						{
							OFFSET 0.000000 18.199875 0.000000
						}
					}
				}
				JOINT newVegas:Collar_Back
				{
					OFFSET 0.000000 15.630707 -20.132601
					CHANNELS 3 Xrotation Yrotation Zrotation
					End Site
					{
						OFFSET 0.000000 22.523010 0.000000
					}
				}
				JOINT newVegas:Left_Peck
				{
					OFFSET 17.239599 -5.132599 25.482599
					CHANNELS 3 Xrotation Yrotation Zrotation
					End Site
					{
						OFFSET 0.000000 22.523010 0.000000
					}
				}
				JOINT newVegas:Right_Peck
				{
					OFFSET -17.239599 -5.132202 25.482599
					CHANNELS 3 Xrotation Yrotation Zrotation
					End Site
					{
						OFFSET 0.000000 22.523010 0.000000
					}
				}
				JOINT newVegas:Right_Collar
				{
					OFFSET -18.625099 8.655792 8.828100
					CHANNELS 3 Xrotation Yrotation Zrotation
					JOINT newVegas:Right_Collar1
					{
						OFFSET -14.783401 10.539993 -1.259500
						CHANNELS 3 Xrotation Yrotation Zrotation
						End Site
						{
							OFFSET 0.000000 18.199631 0.000000
						}
					}
				}
			}
		}
		JOINT newVegas:Belly
		{
			OFFSET 0.000000 -6.540398 9.014299
			CHANNELS 3 Xrotation Yrotation Zrotation
			End Site
			{
				OFFSET 0.000000 11.566666 0.000000
			}
		}
	}
	JOINT newVegas:ElvisFacialAnim_Joint
	{
		OFFSET 1.000000 -95.330101 -8.825800
		CHANNELS 3 Xrotation Yrotation Zrotation
		End Site
		{
			OFFSET 0.000000 35.315800 0.000000
		}
	}
}
MOTION
Frames: 4
Frame Time: 0.033333
-0.099025 96.070938 4.532387 -0.013345 -2.299651 -0.605743 0.000000 0.000000 0.000000 -7.134837 10.902161 2.246047 10.322035 -3.258414 -0.163478 -3.437523 6.114808 0.071538 -0.000000 0.000000 -0.000000 0.000000 0.000000 -0.000000 -6.022641 0.602422 1.140112 5.727512 -5.257376 0.069102 0.285097 2.801391 -0.560729 -0.000000 -0.000000 0.000000 -0.000000 0.000000 -0.000000 -0.120838 0.569773 -0.845912 -0.246332 1.060944 -0.318801 -0.252561 1.423350 1.775077 1.688246 0.070498 0.765741 1.688245 0.070498 0.765740 0.000000 0.000000 0.000000 1.688319 0.070496 0.765741 1.688247 0.070497 0.765740 0.000000 -0.000000 -0.000000 0.000000 0.000000 0.000000 -4.811917 -10.638943 -12.165659 16.240373 -28.514337 -68.254757 -0.000000 -9.291181 -0.000004 -11.492977 6.076579 -2.146684 -2.875541 3.737116 9.044231 12.467228 25.893420 0.632766 -0.000005 0.000000 -0.000004 0.718534 5.232805 -19.057205 0.227588 1.618596 -16.006209 -0.000002 -0.000002 -0.000000 0.445595 4.440647 -20.096233 0.256636 1.716595 -17.004644 -0.000000 0.000002 0.000000 -1.271367 0.698371 -24.653534 0.393944 2.113805 -21.110894 0.000000 -0.000001 0.000003 -3.277290 -3.335826 -25.924014 0.433030 2.212315 -22.146673 0.000001 0.000000 0.000001 0.000003 0.000000 -0.000000 0.000003 0.000000 -0.000000 0.000002 0.000000 -0.000000 -0.000003 -0.000001 -0.000000 -0.000003 -0.000001 -0.000000 -0.000003 -0.000001 -0.000000 -0.000004 -0.000001 -0.000001 -2.185719 -0.070489 11.813022 19.535719 39.084938 62.976359 0.000006 10.825447 -0.000005 -14.441930 0.536948 0.113398 -6.843758 -4.630922 -19.349753 11.511874 -15.496927 5.716062 0.000002 0.000001 -0.000000 1.028572 -6.393229 15.662160 0.131290 -1.099095 13.621658 -0.000002 0.000000 0.000000 1.068381 -5.657482 22.565755 0.287527 -1.612582 20.217705 -0.000003 0.000001 0.000003 -1.020117 -1.300724 27.058739 0.416626 -1.927108 24.395938 0.000003 -0.000001 -0.000001 -2.355162 0.077395 32.964204 0.636206 -2.351618 30.272863 -0.000002 0.000002 -0.000000 -0.000003 0.000000 -0.000000 -0.000003 -0.000000 0.000000 -0.000003 0.000000 -0.000000 0.000000 0.000002 -0.000001 0.000000 0.000002 -0.000000 0.000000 0.000002 -0.000001 0.000000 0.000002 -0.000000 0.000000 0.000000 -0.000000 0.000000 0.000000 -0.000000 0.000000 0.000000 -0.000000 0.000000 0.000000 -0.000000 0.000000 0.000000 -0.000000 0.000000 0.000000 -0.000000 0.000000 0.000000 -0.000000 -0.000000 0.000000 -0.000000 0.000000 0.000000 0.000000 
-0.169771 96.070938 4.715932 -0.032399 -2.243303 -0.605605 -0.000000 0.000000 0.000000 -6.952851 10.955687 2.308464 10.275043 -3.372970 -0.170854 -3.549984 6.119729 0.004328 0.000000 -0.000000 -0.000000 -0.000000 0.000000 0.000000 -5.810909 0.545727 1.158782 5.723493 -5.289798 0.117656 0.098112 2.812366 -0.619678 0.000000 -0.000000 0.000000 0.000000 0.000001 -0.000000 -0.144051 0.543945 -0.865404 -0.267887 1.041629 -0.318800 -0.274079 1.403396 1.775077 1.671731 0.070320 0.766882 1.671732 0.070320 0.766882 0.000000 -0.000000 -0.000000 1.671734 0.070318 0.766882 1.671662 0.070322 0.766880 -0.000000 0.000000 -0.000000 0.000000 -0.000000 -0.000000 -4.801275 -10.652161 -12.051427 16.362031 -28.448506 -68.506709 0.000002 -9.380450 0.000004 -11.337178 6.412372 -2.339496 -2.875533 3.737115 9.044232 12.478887 25.979342 0.645623 0.000001 0.000001 -0.000003 0.723026 5.240889 -19.146347 0.230106 1.627331 -16.095057 0.000003 0.000001 0.000000 0.448838 4.449152 -20.185268 0.259304 1.725298 -17.093488 -0.000001 0.000000 0.000001 -1.273921 0.709503 -24.741718 0.397248 2.122338 -21.200356 -0.000002 -0.000001 -0.000001 -3.285944 -3.321771 -26.011100 0.436544 2.220959 -22.237831 -0.000006 -0.000003 0.000000 0.000002 0.000001 -0.000000 0.000002 0.000001 -0.000000 0.000001 0.000001 -0.000000 0.000003 0.000000 0.000001 0.000003 0.000000 0.000001 0.000003 0.000000 0.000001 0.000002 -0.000000 0.000000 -2.185048 -0.129351 11.786032 19.592775 39.061924 63.057338 -0.000006 10.905507 0.000015 -14.630296 0.473975 0.087256 -6.843753 -4.630922 -19.349750 11.533912 -15.582100 5.702915 0.000003 0.000002 -0.000000 1.034999 -6.398931 15.751574 0.132999 -1.106147 13.710859 -0.000002 -0.000001 -0.000001 1.073668 -5.663135 22.655136 0.290033 -1.619397 20.306781 0.000001 0.000001 0.000002 -1.021618 -1.309603 27.147333 0.419648 -1.933740 24.485279 0.000003 -0.000001 -0.000000 -2.358791 0.066477 33.052248 0.639912 -2.357939 30.362885 -0.000001 0.000003 0.000001 -0.000003 0.000000 -0.000000 -0.000003 -0.000001 0.000000 -0.000003 0.000001 -0.000000 -0.000004 0.000000 -0.000002 -0.000004 0.000000 -0.000001 -0.000004 0.000000 -0.000002 -0.000004 -0.000000 -0.000001 -0.000000 -0.000000 0.000000 -0.000000 -0.000000 0.000000 -0.000000 -0.000000 0.000000 -0.000000 -0.000000 0.000000 -0.000000 -0.000000 0.000000 -0.000000 -0.000000 0.000000 -0.000000 -0.000000 0.000000 -0.000000 -0.000000 0.000000 -0.000000 0.000000 0.000000 
-0.229296 96.069435 4.880663 -0.012713 -2.253171 -0.601669 -0.000000 -0.000000 0.000000 -6.786723 10.979395 2.335831 10.197490 -3.370652 -0.148815 -3.649870 6.134027 -0.075539 -0.000000 0.000000 -0.000000 -0.000000 -0.000000 -0.000000 -5.676466 0.506486 1.170860 5.706606 -5.243876 0.164015 -0.036835 2.814369 -0.674323 0.000000 0.000000 0.000000 0.000000 0.000001 -0.000000 -0.162375 0.536790 -0.884171 -0.285081 1.038561 -0.324706 -0.291180 1.400151 1.768913 1.645358 0.069655 0.775235 1.645366 0.069656 0.775237 -0.000000 0.000000 0.000000 1.645500 0.069655 0.775237 1.645280 0.069659 0.775235 0.000000 0.000000 -0.000000 -0.000000 0.000000 0.000000 -4.794361 -10.681030 -11.973643 16.533403 -28.308168 -68.610159 -0.000004 -9.491044 -0.000015 -11.285613 6.522479 -2.400583 -2.875539 3.737117 9.044229 12.512350 26.224831 0.681553 0.000003 0.000002 -0.000002 0.735891 5.263899 -19.400836 0.237355 1.652264 -16.348758 0.000001 -0.000000 0.000001 0.458165 4.473400 -20.439365 0.266991 1.750091 -17.347110 -0.000000 -0.000001 0.000003 -1.281145 0.741295 -24.993484 0.406754 2.146678 -21.455678 -0.000000 -0.000000 -0.000003 -3.308888 -3.278056 -26.259118 0.446695 2.245575 -22.498095 0.000001 -0.000005 0.000001 0.000001 0.000000 -0.000000 0.000001 0.000000 -0.000000 -0.000000 0.000000 -0.000000 -0.000005 0.000000 -0.000000 -0.000004 0.000000 -0.000000 -0.000005 0.000000 -0.000000 -0.000006 0.000000 -0.000001 -2.180707 -0.159539 11.805068 19.577340 39.057607 63.089057 -0.000006 10.785425 -0.000013 -14.522116 0.607387 0.018803 -6.843756 -4.630923 -19.349752 11.596810 -15.825424 5.666337 -0.000003 -0.000001 0.000001 1.053390 -6.415177 16.006832 0.137954 -1.126287 13.965504 0.000003 -0.000001 0.000002 1.088784 -5.679237 22.910264 0.297258 -1.638791 20.561105 0.000002 -0.000001 0.000000 -1.025885 -1.334977 27.400182 0.428301 -1.952611 24.740414 0.000001 -0.000002 -0.000005 -2.369075 0.035297 33.303562 0.650517 -2.375944 30.619864 -0.000002 0.000003 0.000003 -0.000001 -0.000001 -0.000000 -0.000001 -0.000000 -0.000000 -0.000001 -0.000001 0.000000 0.000000 0.000002 -0.000000 0.000001 0.000002 -0.000000 0.000000 0.000002 -0.000000 0.000001 0.000002 -0.000000 -0.000000 -0.000000 -0.000000 -0.000000 -0.000000 -0.000000 -0.000000 -0.000000 -0.000000 -0.000000 -0.000000 -0.000000 -0.000000 -0.000000 -0.000000 -0.000000 -0.000000 -0.000000 -0.000000 -0.000000 -0.000000 0.000000 -0.000000 -0.000000 -0.000000 -0.000000 0.000000 
-0.280998 96.036308 5.020988 0.049072 -2.303395 -0.569507 0.000000 -0.000000 0.000000 -6.780908 10.986783 2.352504 10.335351 -3.334352 -0.140794 -3.845226 6.146185 -0.132551 0.000000 -0.000000 -0.000000 -0.000000 0.000000 0.000001 -5.881826 0.495883 1.158514 6.217461 -5.193214 0.177314 -0.403631 2.793288 -0.671314 0.000000 0.000000 0.000000 0.000000 -0.000000 0.000000 -0.175561 0.538561 -0.925082 -0.298010 1.042126 -0.347185 -0.303854 1.403451 1.746258 1.614714 0.070117 0.782514 1.614718 0.070117 0.782513 0.000000 -0.000000 -0.000000 1.614717 0.070116 0.782514 1.614785 0.070118 0.782514 0.000000 -0.000000 0.000000 0.000000 -0.000000 -0.000000 -4.794233 -10.699280 -11.971018 16.704534 -28.136029 -68.548236 0.000004 -9.537926 -0.000010 -11.097850 6.599246 -2.376020 -2.875532 3.737115 9.044227 12.569548 26.610893 0.735326 -0.000003 -0.000005 -0.000003 0.756322 5.300003 -19.801222 0.249006 1.691436 -16.747854 -0.000002 0.000001 0.000000 0.473059 4.511460 -20.839145 0.279316 1.789035 -17.746162 -0.000004 -0.000001 -0.000001 -1.292214 0.791372 -25.389529 0.421931 2.184877 -21.857394 -0.000003 -0.000001 0.000003 -3.344522 -3.209108 -26.649315 0.462871 2.284230 -22.907505 -0.000001 -0.000008 -0.000006 0.000001 0.000000 0.000000 0.000001 0.000000 0.000000 0.000000 -0.000000 0.000000 -0.000001 0.000000 0.000000 -0.000000 0.000000 0.000000 -0.000001 0.000000 0.000000 -0.000002 -0.000000 -0.000000 -2.178969 -0.169762 11.818386 19.320595 39.031236 63.223817 0.000001 10.435515 -0.000013 -14.213402 0.703083 0.001436 -6.843762 -4.630924 -19.349753 11.700176 -16.207515 5.612406 -0.000000 -0.000002 -0.000002 1.082464 -6.440565 16.408430 0.145939 -1.157927 14.366130 -0.000002 -0.000001 0.000000 1.112698 -5.704418 23.311670 0.308806 -1.669233 20.961217 0.000004 0.000002 0.000001 -1.032338 -1.374932 27.797970 0.442068 -1.982224 25.141781 0.000003 0.000001 0.000000 -2.382805 -0.017086 33.698596 0.667377 -2.404178 31.024147 -0.000001 0.000002 -0.000003 -0.000000 -0.000000 0.000000 -0.000000 0.000000 -0.000000 -0.000000 -0.000000 0.000001 0.000001 0.000001 -0.000000 0.000001 0.000000 -0.000000 0.000001 0.000001 -0.000000 0.000001 -0.000000 -0.000000 -0.000000 -0.000000 -0.000000 -0.000000 -0.000000 -0.000000 -0.000000 -0.000000 -0.000000 -0.000000 -0.000000 -0.000000 -0.000000 -0.000000 -0.000000 -0.000000 -0.000000 -0.000000 -0.000000 -0.000000 -0.000000 -0.000000 -0.000000 0.000000 0.000000 -0.000000 0.000000 
